<?xml version="1.0" standalone="no"?>
<!DOCTYPE svg PUBLIC "-//W3C//DTD SVG 20010904//EN"
 "http://www.w3.org/TR/2001/REC-SVG-20010904/DTD/svg10.dtd">
<svg version="1.0" xmlns="http://www.w3.org/2000/svg"
 width="1024.000000pt" height="1024.000000pt" viewBox="0 0 1024.000000 1024.000000"
 preserveAspectRatio="xMidYMid meet">

<g transform="translate(0.000000,1024.000000) scale(0.100000,-0.100000)"
fill="#000000" stroke="none">
<path d="M4810 8114 c-505 -68 -991 -336 -1334 -734 -109 -128 -216 -276 -216
-300 0 -13 11 -19 42 -24 90 -15 179 -70 229 -143 62 -89 63 -97 69 -468 l5
-340 78 -3 c72 -3 78 -1 86 20 69 182 113 283 152 354 205 366 525 620 909
721 118 31 382 43 536 23 243 -30 473 -137 668 -309 95 -84 166 -167 248 -291
l69 -105 248 250 c136 137 280 285 321 327 l73 78 -28 40 c-95 137 -287 338
-440 460 -306 244 -659 391 -1065 446 -137 18 -509 17 -650 -2z"/>
<path d="M7150 7010 c-109 -23 -131 -42 -442 -378 -161 -174 -354 -382 -428
-462 -75 -80 -296 -318 -491 -530 -366 -396 -488 -520 -510 -520 -7 0 -98 85
-203 189 -112 110 -210 198 -236 212 -37 20 -60 24 -130 24 -102 0 -146 -19
-209 -91 -72 -82 -91 -216 -51 -348 20 -64 27 -73 208 -259 103 -106 255 -267
337 -357 259 -284 246 -275 410 -275 173 1 196 13 380 199 83 83 274 282 425
441 151 160 322 340 380 400 254 264 364 380 665 699 448 474 480 510 504 561
27 58 28 142 2 193 -24 47 -192 211 -251 245 -80 46 -267 76 -360 57z"/>
<path d="M2714 6899 c-18 -5 -48 -27 -67 -48 -70 -78 -67 -18 -67 -1277 0
-770 3 -1149 11 -1183 13 -63 44 -109 89 -135 33 -20 51 -21 310 -21 302 0
325 3 388 59 19 17 45 51 56 76 20 43 21 65 24 408 2 270 6 364 15 367 28 10
152 14 470 14 l337 1 0 85 c0 50 6 103 16 130 60 179 239 343 391 362 66 7
162 -11 228 -44 33 -17 104 -78 211 -185 98 -97 168 -159 177 -156 9 1 112
107 229 233 118 127 242 260 276 296 34 36 59 69 55 73 -3 3 -541 6 -1193 6
-938 0 -1190 3 -1198 13 -6 7 -12 151 -14 392 -3 365 -4 382 -25 420 -24 46
-54 75 -103 101 -31 17 -63 19 -310 21 -151 1 -289 -2 -306 -8z"/>
<path d="M2059 6391 c-92 -17 -138 -59 -165 -149 -22 -73 -20 -1317 2 -1370
18 -44 57 -87 99 -110 45 -25 336 -25 382 1 71 38 68 0 68 807 0 798 3 765
-62 803 -25 14 -58 19 -155 22 -68 2 -144 0 -169 -4z"/>
<path d="M7350 5837 c-144 -155 -375 -397 -511 -538 -238 -246 -251 -261 -314
-373 -107 -191 -242 -382 -385 -541 -34 -38 -241 -249 -459 -468 -389 -391
-442 -437 -500 -437 -34 0 -128 53 -196 112 -103 88 -657 621 -736 709 -166
184 -285 354 -396 566 l-68 128 -92 3 -91 3 -4 -298 c-4 -279 -6 -302 -27
-361 -47 -130 -124 -204 -252 -243 l-69 -21 40 -57 c89 -127 339 -430 524
-636 392 -436 1160 -1200 1244 -1238 65 -29 160 -28 226 3 64 31 211 167 536
496 714 723 1167 1258 1456 1719 82 132 218 397 262 514 45 117 109 345 133
476 26 141 36 401 19 516 -12 86 -54 234 -69 243 -4 3 -126 -122 -271 -277z"/>
</g>
</svg>
